<?xml version="1.0" encoding="UTF-8"?>
<svg id="Layer_1" data-name="Layer 1" xmlns="http://www.w3.org/2000/svg" viewBox="0 0 1024 1024">
  <defs>
    <style>
      .cls-1 {
        fill: currentColor;
        stroke-width: 0px;
      }
    </style>
  </defs>
  <path class="cls-1" d="M819.68,550H147.3c-20.99,0-38-17.01-38-38h0c0-20.99,17.01-38,38-38h672.38v76Z"/>
  <path class="cls-1" d="M513.36,246.17l265.83,265.83-265.83,265.83c-14.84,14.84-14.84,38.9,0,53.74h0c14.84,14.84,38.9,14.84,53.74,0l265.83-265.83h0s53.74-53.74,53.74-53.74l-53.74-53.74-265.83-265.83c-14.84-14.84-38.9-14.84-53.74,0h0c-14.84,14.84-14.84,38.9,0,53.74Z"/>
</svg>