<?xml version="1.0" encoding="UTF-8"?>
<svg id="Layer_1" data-name="Layer 1" xmlns="http://www.w3.org/2000/svg" viewBox="0 0 1024 1024">
  <defs>
    <style>
      .cls-1 {
        fill: currentColor;
        stroke-width: 0px;
      }
    </style>
  </defs>
  <path class="cls-1" d="M584.75,512l289.29-289.29c20.01-20.01,20.01-52.74,0-72.75h0c-20.01-20.01-52.74-20.01-72.75,0l-289.29,289.29L222.71,149.96c-20.01-20.01-52.74-20.01-72.75,0h0c-20.01,20.01-20.01,52.74,0,72.75l289.29,289.29-289.29,289.29c-20.01,20.01-20.01,52.74,0,72.75h0c20.01,20.01,52.74,20.01,72.75,0l289.29-289.29,289.29,289.29c20.01,20.01,52.74,20.01,72.75,0h0c20.01-20.01,20.01-52.74,0-72.75l-289.29-289.29Z"/>
</svg>