<?xml version="1.0" encoding="UTF-8"?>
<svg id="Layer_1" xmlns="http://www.w3.org/2000/svg" viewBox="0 0 1024 1024">
  <defs>
    <style>
      .cls-1 {
        fill: currentColor;
      }
    </style>
  </defs>
  <path class="cls-1" d="M563.14,512l205.9-205.9c14.12-14.12,14.12-37.02,0-51.14s-37.02-14.12-51.14,0l-205.9,205.9-205.9-205.9c-14.12-14.12-37.02-14.12-51.14,0s-14.12,37.02,0,51.14l205.9,205.9-205.9,205.9c-14.12,14.12-14.12,37.02,0,51.14h0c14.12,14.12,37.02,14.12,51.14,0l205.9-205.9,205.9,205.9c14.12,14.12,37.02,14.12,51.14,0h0c14.12-14.12,14.12-37.02,0-51.14l-205.9-205.9Z"/>
</svg>