<?xml version="1.0" encoding="UTF-8"?>
<svg id="Layer_1" xmlns="http://www.w3.org/2000/svg" viewBox="0 0 1024 1024">
  <path d="M416.02,471.63c30.23,27.14,64.05,42.99,80.3,50.6,4.95,2.32,10.23,3.5,15.67,3.5h0c5.45,0,10.72-1.18,15.68-3.5,16.25-7.62,50.07-23.46,80.3-50.6,37.79-33.92,57.26-73.99,57.85-119.09.32-24.43-9.57-48.29-27.14-65.45-16.26-15.88-37.21-24.18-58.93-23.37-29.66,1.1-54.19,23.23-67.75,38.61-13.56-15.38-38.09-37.51-67.75-38.61-21.75-.82-42.67,7.49-58.94,23.37-17.57,17.16-27.47,41.01-27.15,65.45.6,45.1,20.06,85.17,57.85,119.09ZM621.78,304.41c12.85,12.55,20.09,29.98,19.85,47.81-1.2,90.43-93.79,133.84-124.22,148.1-3.44,1.61-7.39,1.61-10.83,0-30.43-14.26-123.03-57.67-124.22-148.1-.23-17.84,7-35.27,19.86-47.82,10.92-10.67,24.83-16.54,39.15-16.54.66,0,1.32.01,1.98.04,31.17,1.16,58.38,40.27,58.65,40.66,2.25,3.31,5.99,5.28,10,5.29,4,0,7.73-1.97,9.99-5.27.27-.4,27.52-39.52,58.66-40.68,15.04-.57,29.65,5.3,41.13,16.5Z"/>
  <path d="M794.78,576.64l-1.21-4.02c-2.67-8.87-8.65-16.17-16.84-20.57-8.2-4.4-17.61-5.35-26.51-2.67l-156.66,48c-14.54-10.89-41.24-17.77-54.08-17.77h-67.35c-26.49-5.13-39.88-12.53-48.58-18.41-2.01-1.36-3.81-2.66-5.56-3.92-7.42-5.37-14.43-10.44-25.43-10.44h-33.47c-1.84,0-6.74,0-24.33,9.75-5.19-8.33-14.44-13.89-24.96-13.89h-52.65c-16.21,0-29.39,13.19-29.39,29.39v158.85c0,16.21,13.19,29.39,29.39,29.39h52.65c16.21,0,29.39-13.19,29.39-29.39v-3.25c14.23,9.79,30.26,17.4,48.1,18.05.44.02.89.02,1.37.02,9.76,0,28.06-3.35,55.78-8.42,43.96-8.05,104.16-19.07,164.51-22.74,20.34-1.24,40.04-8.16,56.96-20l107.64-75.33c17.23-6.35,26.55-24.96,21.23-42.63ZM388.16,721.56c-18.1-.65-34.85-12.47-48.98-24.32v-115.29c11.5-6.78,18.75-10.14,20.97-10.91h32.39c2.93,0,5.15,1.43,11.25,5.84,1.7,1.23,3.81,2.76,6.19,4.37,10.77,7.28,27.18,16.4,58.75,22.35.74.14,1.49.21,2.24.21h68.5c8.51,0,25.36,4.9,35.14,10.11-1.14,4.42-3.04,10.84-6.62,20-.88.67-4.82,3.11-17.21,4.48-13.33,1.48-29.74,1.04-40.92.58-22.19-.91-44.64,3.48-64.92,12.72l-17.79,8.11c-2.94,1.34-5.18,3.74-6.32,6.77-1.13,3.03-1.02,6.31.32,9.25,1.96,4.3,6.28,7.09,11.01,7.09,1.74,0,3.42-.37,5.01-1.09l17.79-8.1c16.85-7.67,35.49-11.33,53.9-10.56,52.13,2.14,74.95-3.39,81.38-19.72,3.14-7.97,5.57-15.2,7.4-22.01l159.6-48.9c2.68-.81,5.54-.51,8.04.83,2.5,1.34,4.32,3.56,5.12,6.24l1.21,4.02c1.68,5.58-1.5,11.48-7.07,13.16-1.23.37-2.39.93-3.45,1.67l-109.06,76.32c-13.27,9.29-28.67,14.71-44.56,15.67-61.78,3.76-122.82,14.93-167.4,23.09-24.19,4.43-45.09,8.25-51.92,8.02ZM314.98,575.1s0,0,0,.01v127.71s0,.01,0,.02v28.1c0,2.87-2.33,5.2-5.2,5.2h-52.65c-2.87,0-5.2-2.33-5.2-5.2v-158.85c0-2.87,2.33-5.2,5.2-5.2h52.65c2.87,0,5.2,2.33,5.2,5.2v3.01Z"/>
</svg>