<?xml version="1.0" encoding="UTF-8"?>
<svg id="Layer_1" data-name="Layer 1" xmlns="http://www.w3.org/2000/svg" viewBox="0 0 1024 1024">
  <defs>
    <style>
      .cls-1 {
        fill: currentColor;
        stroke-width: 0px;
      }
    </style>
  </defs>
  <path class="cls-1" d="M565.74,773.51l265.83-265.83c14.84-14.84,14.84-38.9,0-53.74h0c-14.84-14.84-38.9-14.84-53.74,0l-227.83,227.83V87.88c0-20.99-17.01-38-38-38h0c-20.99,0-38,17.01-38,38v593.89l-227.83-227.83c-14.84-14.84-38.9-14.84-53.74,0h0c-14.84,14.84-14.84,38.9,0,53.74l265.83,265.83h0s53.74,53.74,53.74,53.74l53.74-53.74Z"/>
  <path class="cls-1" d="M876.18,723.41v99.49c0,24.8-20.1,44.9-44.9,44.9H192.72c-24.8,0-44.9-20.1-44.9-44.9v-99.49c0-24.8-20.1-44.9-44.9-44.9h0c-24.8,0-44.9,20.1-44.9,44.9v144.38s0,0,0,0c0,45.62,36.99,82.61,82.61,82.61h742.72c45.62,0,82.61-36.99,82.61-82.61h0v-144.38c0-24.8-20.1-44.9-44.9-44.9h0c-24.8,0-44.9,20.1-44.9,44.9Z"/>
</svg>