<?xml version="1.0" encoding="UTF-8"?>
<svg id="Layer_1" data-name="Layer 1" xmlns="http://www.w3.org/2000/svg" viewBox="0 0 1024 1024">
  <defs>
    <style>
      .cls-1 {
        fill: currentColor;
        stroke-width: 0px;
      }
    </style>
  </defs>
  <path class="cls-1" d="M903.01,271.12c-8.92-8.91-21.24-14.43-34.85-14.43h-426.8c-21.16-70.42-86.47-121.73-163.79-121.73-94.45,0-171.01,76.56-171.01,171.01s76.56,171.01,171.01,171.01c77.32,0,142.63-51.31,163.79-121.73h426.8c27.22,0,49.28-22.06,49.28-49.28,0-13.61-5.51-25.93-14.43-34.85ZM277.57,397.69c-50.66,0-91.72-41.06-91.72-91.72s41.06-91.72,91.72-91.72,91.73,41.06,91.73,91.72-41.07,91.72-91.73,91.72Z"/>
  <path class="cls-1" d="M106.56,718.03c0,27.22,22.06,49.28,49.28,49.28h426.8c21.16,70.42,86.47,121.73,163.79,121.73,94.45,0,171.01-76.56,171.01-171.01s-76.56-171.01-171.01-171.01c-77.32,0-142.63,51.31-163.79,121.73H155.84c-13.61,0-25.93,5.52-34.85,14.43-8.92,8.92-14.43,21.24-14.43,34.85ZM654.7,718.03c0-50.66,41.07-91.72,91.73-91.72s91.72,41.06,91.72,91.72-41.06,91.72-91.72,91.72-91.73-41.06-91.73-91.72Z"/>
</svg>