<?xml version="1.0" encoding="UTF-8"?>
<svg id="Layer_1" xmlns="http://www.w3.org/2000/svg" viewBox="0 0 1024 1024">
  <path d="M420.69,483.46l-106.5-61.5c-10.65-6.14-23.36-6.14-34,.01-10.64,6.15-17,17.15-17,29.44v122.97c0,12.28,6.35,23.29,16.99,29.43,5.32,3.08,11.16,4.61,17.01,4.61s11.68-1.54,17-4.61l106.49-61.49c10.65-6.14,17.01-17.15,17.01-29.44s-6.36-23.3-17-29.44ZM408.3,520.87l-106.49,61.49c-4.16,2.4-7.84.8-9.22,0-1.38-.8-4.6-3.18-4.6-7.97v-122.97c0-4.8,3.22-7.18,4.61-7.98.84-.49,2.53-1.27,4.66-1.27,1.37,0,2.93.33,4.55,1.26l106.5,61.5c4.16,2.4,4.61,6.37,4.61,7.97s-.45,5.57-4.61,7.97Z"/>
  <polygon points="544.32 471.49 525.6 471.49 525.6 554.31 577.28 554.31 577.28 538.61 544.32 538.61 544.32 471.49"/>
  <rect x="588.39" y="471.49" width="18.73" height="82.82"/>
  <path d="M662.24,506.85c-2.82,9.47-5.49,19.31-7.59,29.26h-.26c-2.07-10.33-4.58-19.7-7.48-29.55l-10.02-35.06h-20.51l26.57,82.82h21.87l27.85-82.82h-19.92l-10.51,35.36Z"/>
  <polygon points="720.3 519.27 750.77 519.27 750.77 504.08 720.3 504.08 720.3 486.83 752.59 486.83 752.59 471.49 701.57 471.49 701.57 554.31 754.36 554.31 754.36 538.97 720.3 538.97 720.3 519.27"/>
  <path d="M767.41,400.24h-314.06c-29.94-31.67-72.32-51.47-119.24-51.47-90.5,0-164.12,73.63-164.12,164.12s73.63,164.12,164.12,164.12c46.92,0,89.3-19.79,119.24-51.47h314.06c39.83,0,72.23-32.4,72.23-72.23v-80.85c0-39.83-32.4-72.23-72.23-72.23ZM334.11,652.23c-76.83,0-139.34-62.51-139.34-139.34s62.51-139.34,139.34-139.34,139.34,62.51,139.34,139.34-62.51,139.34-139.34,139.34ZM814.86,553.32c0,26.16-21.28,47.45-47.45,47.45h-294.74c16.18-25.42,25.56-55.57,25.56-87.87s-9.38-62.45-25.56-87.87h294.74c26.16,0,47.45,21.28,47.45,47.45v80.85Z"/>
</svg>