<?xml version="1.0" encoding="UTF-8"?>
<svg id="Layer_1" xmlns="http://www.w3.org/2000/svg" viewBox="0 0 1024 1024">
  <path d="M313,541.55c-24.02,0-43.55,19.54-43.55,43.55v80.08h87.11v-80.08c0-24.02-19.54-43.55-43.55-43.55ZM313,560.35c13.65,0,24.75,11.1,24.75,24.75v61.28h-49.51v-61.28c0-13.65,11.1-24.75,24.75-24.75Z"/>
  <path d="M692.89,541.55c-24.02,0-43.55,19.54-43.55,43.55v80.08h87.11v-80.08c0-24.02-19.54-43.55-43.55-43.55ZM668.14,585.1c0-13.65,11.1-24.75,24.75-24.75s24.75,11.1,24.75,24.75v61.28h-49.51v-61.28Z"/>
  <path d="M824.42,525.76v-18.8h-33.31c-31.28-39.45-52.44-80.96-64.69-126.87l19.23-19.23-13.29-13.29-20.27,20.27h-29.11c-5.61-8.35-9.66-17-12.34-26.41l19.31-19.31-13.29-13.29-20.35,20.35h-45.41l4.25-25.64,20.39-20.39-13.29-13.29-20.79,20.79h-47.18l-41.9-72.58v-35.18h-18.8v35.18l-41.9,72.58h-47.18l-20.79-20.79-13.29,13.29,21.37,21.37,3.81,24.66h-45.96l-20.35-20.35-13.29,13.29,19.31,19.31c-2.69,9.41-6.73,18.07-12.34,26.41h-29.11l-20.27-20.27-13.29,13.29,19.23,19.23c-12.6,47.24-34.68,89.88-67.47,130.35l-12.42,15.32h50.97v149.23h-40.65v52.41h586.09v-52.41h-40.65v-149.23h69.08ZM344.82,367.85c3.38-6.39,6.05-12.92,8.12-19.87h37.37v19.87h-45.49ZM411.53,309.44h29.26l-23.08,39.98-6.18-39.98ZM565.1,309.44h29.99l-6.68,40.37-23.31-40.37ZM615.58,367.85v-19.87h37.37c2.08,6.96,4.75,13.48,8.12,19.87h-45.49ZM228.7,708.6v-14.81h548.49v14.81H228.7ZM703.15,494.78l-13.29-13.29-16.12,16.12-64.06-110.95h99.04c11.78,43.34,31.01,82.74,58.72,120.31h-76.48l12.18-12.18ZM646.9,674.98v-149.22h89.65v149.22h-89.65ZM595.9,526.52v148.46h-15.07v-148.46h15.07ZM478.02,601.44c0-6.88,5.6-12.49,12.49-12.49h24.53c6.88,0,12.49,5.6,12.49,12.49v73.52h-49.51v-73.52ZM515.04,570.16h-24.53c-17.25,0-31.29,14.04-31.29,31.29v73.52h-15v-148.44h117.46v148.44h-15.35v-73.52c0-17.25-14.04-31.29-31.29-31.29ZM425.06,526.52v148.46h-15.07v-148.46h15.07ZM610.54,506.54h-215.18l9.39-14.07h196.4l9.39,14.07ZM412.94,473.67l90.01-155.9,90.01,155.9h-180.02ZM391.19,526.52v148.44h-13.4v-148.44h13.4ZM628.1,526.52v148.44h-13.4v-148.44h13.4ZM633.64,506.54l-130.69-226.37-130.69,226.37h-23.55l154.24-267.16,154.24,267.16h-23.55ZM269.35,674.98v-149.22h89.65v149.22h-89.65ZM333.51,495.26l-13.78-13.78-13.29,13.29,12.18,12.18h-80.17c27.71-37.58,46.94-76.97,58.72-120.31h99.04l-62.71,108.61Z"/>
</svg>