<?xml version="1.0" encoding="UTF-8"?>
<svg id="Layer_1" data-name="Layer 1" xmlns="http://www.w3.org/2000/svg" viewBox="0 0 1024 1024">
  <defs>
    <style>
      .cls-1 {
        fill: currentColor;
        stroke-width: 0px;
      }
    </style>
  </defs>
  <g>
    <path class="cls-1" d="M812.92,731.62c-1.65,0-3.32-.2-4.99-.63l-297.44-75.42c-5.24-1.33-9.66-4.63-12.44-9.3s-3.58-10.13-2.25-15.37l46.69-184.13c1.33-5.24,4.63-9.66,9.3-12.44,4.67-2.78,10.13-3.58,15.37-2.25l297.44,75.42c5.24,1.33,9.66,4.63,12.44,9.3,2.78,4.67,3.58,10.13,2.25,15.37l-46.69,184.13c-2.33,9.18-10.61,15.31-19.68,15.31ZM812.3,713.78c1.34.34,2.75-.5,3.09-1.84l46.69-184.13c.22-.87-.09-1.58-.29-1.92-.2-.34-.67-.95-1.55-1.17l-297.44-75.42c-.87-.22-1.58.09-1.92.29s-.95.67-1.17,1.55l-46.69,184.13c-.22.87.09,1.58.29,1.92.2.34.67.95,1.55,1.17l297.44,75.42Z"/>
    <path class="cls-1" d="M845.65,613.61c-1.37,0-2.76-.17-4.12-.52l-304.38-77.18c-4.32-1.1-7.96-3.81-10.25-7.66-2.29-3.84-2.95-8.34-1.85-12.66l18.33-72.29c2.27-8.93,11.38-14.36,20.32-12.1l304.38,77.18c4.32,1.09,7.96,3.81,10.25,7.66,2.29,3.84,2.94,8.34,1.85,12.66l-18.33,72.29c-1.1,4.32-3.82,7.96-7.66,10.25-2.63,1.57-5.56,2.37-8.54,2.37ZM542.52,518.95l302.36,76.67,17.82-70.27-302.36-76.67-17.82,70.27Z"/>
    <path class="cls-1" d="M856.07,578.08c-1.23,0-2.46-.15-3.68-.46l-307.91-78.08c-7.96-2.02-12.8-10.14-10.78-18.1l10.12-39.9c.98-3.85,3.4-7.1,6.82-9.13s7.43-2.62,11.28-1.65l307.91,78.08c7.96,2.02,12.8,10.14,10.78,18.1l-10.12,39.9c-.98,3.85-3.4,7.1-6.82,9.13-2.34,1.39-4.95,2.11-7.61,2.11ZM856.76,560.4h0ZM551.63,483.03l302.36,76.67,8.71-34.35-302.36-76.67-8.71,34.35Z"/>
    <path class="cls-1" d="M568.83,647.58c-1.65,0-3.32-.2-4.99-.63l-25.16-6.38c-5.24-1.33-9.66-4.63-12.44-9.3s-3.58-10.13-2.25-15.37l3.26-12.86c2.75-10.85,13.82-17.43,24.67-14.69l25.16,6.38c10.85,2.75,17.44,13.82,14.69,24.67l-3.26,12.86c-2.33,9.18-10.62,15.31-19.68,15.31ZM568.21,629.74c1.33.33,2.75-.5,3.09-1.84l3.26-12.86c.34-1.33-.5-2.75-1.84-3.09l-25.16-6.38c-1.33-.34-2.75.5-3.09,1.84l-3.26,12.86c-.22.87.09,1.58.29,1.92.2.34.67.95,1.55,1.17l25.16,6.38Z"/>
    <path class="cls-1" d="M787.94,639.04c-.76,0-1.52-.09-2.29-.29h0s-121.1-30.71-121.1-30.71c-5-1.28-8.03-6.37-6.79-11.35,1.29-5.04,6.38-8.07,11.39-6.81l121.11,30.71c2.44.62,4.47,2.14,5.75,4.29,1.28,2.15,1.65,4.68,1.03,7.11-1.08,4.23-4.9,7.05-9.08,7.05ZM790,621.53h0,0Z"/>
    <path class="cls-1" d="M781.48,664.59c-.77,0-1.55-.1-2.31-.29h0s-121.1-30.71-121.1-30.71c-2.42-.61-4.47-2.14-5.75-4.29-1.28-2.15-1.65-4.68-1.03-7.11.6-2.39,2.12-4.43,4.27-5.72,2.15-1.29,4.68-1.66,7.11-1.04l121.11,30.71c2.42.61,4.47,2.14,5.75,4.29,1.28,2.15,1.64,4.68,1.02,7.11-.6,2.39-2.12,4.43-4.27,5.72-1.47.88-3.12,1.33-4.79,1.33ZM783.52,647.08h0,0Z"/>
  </g>
  <g>
    <path class="cls-1" d="M269.19,879.34c-8.31,0-16.51-2.25-23.86-6.63-10.73-6.4-18.31-16.55-21.36-28.59l-79.33-313.67c-3.05-12.04-1.2-24.58,5.2-35.31,6.4-10.73,16.55-18.31,28.59-21.36l143.84-36.38c12.04-3.05,24.58-1.2,35.3,5.2,10.73,6.4,18.31,16.55,21.36,28.59l79.33,313.67c3.05,12.04,1.2,24.58-5.2,35.31-6.4,10.73-16.55,18.31-28.59,21.36l-143.84,36.38c-3.79.96-7.63,1.43-11.44,1.43ZM333.68,453.74c-2.36,0-4.72.29-7.06.88l-143.84,36.38c-7.44,1.88-13.72,6.58-17.69,13.24-3.97,6.65-5.12,14.41-3.23,21.86l79.33,313.67c1.88,7.44,6.58,13.72,13.24,17.69,6.65,3.97,14.42,5.12,21.86,3.23l143.84-36.38c7.44-1.88,13.72-6.58,17.69-13.24,3.97-6.65,5.12-14.41,3.23-21.86l-79.33-313.67c-1.88-7.44-6.58-13.72-13.24-17.69-4.56-2.72-9.65-4.12-14.8-4.12Z"/>
    <path class="cls-1" d="M261.36,852.55c-8.07,0-16.03-2.18-23.17-6.44-10.42-6.21-17.78-16.07-20.74-27.77l-73.14-289.2c-6.13-24.22,8.6-48.9,32.81-55.03l146.44-37.04c24.21-6.13,48.9,8.59,55.03,32.81l73.14,289.2c2.96,11.69,1.17,23.87-5.05,34.29-6.21,10.42-16.07,17.78-27.77,20.74l-146.45,37.04c-3.68.93-7.41,1.39-11.11,1.39ZM334.67,453.45c-2.23,0-4.49.27-6.75.84l-146.44,37.04c-14.72,3.72-23.67,18.73-19.95,33.46l73.14,289.2c1.8,7.09,6.28,13.08,12.62,16.87,6.34,3.78,13.74,4.88,20.84,3.08l146.45-37.04,2.18,8.61-2.18-8.61c7.09-1.79,13.08-6.28,16.87-12.62,3.78-6.34,4.88-13.74,3.08-20.84l-73.14-289.2c-3.15-12.47-14.4-20.79-26.71-20.79Z"/>
    <path class="cls-1" d="M220.33,502.61c-3.14,0-6.23-.85-9-2.5-4.05-2.41-6.91-6.25-8.06-10.8l-.87-3.42c-2.38-9.42,3.34-19.01,12.75-21.39l70.38-17.8c4.55-1.15,9.29-.46,13.33,1.96,4.05,2.41,6.91,6.25,8.06,10.8l.87,3.42c2.38,9.42-3.34,19.01-12.75,21.39h0l-70.38,17.8c-1.43.36-2.89.54-4.33.54ZM219.66,481.68l.79,3.13,70.09-17.72-.79-3.13-70.09,17.73Z"/>
    <g>
      <path class="cls-1" d="M314.22,734.3l-4.67-18.47c-10.65,2.5-22.46,1.98-30.02-.97l1.29-13.36c7.69,2.72,18.08,3.79,28.32,1.2,12.99-3.28,19.87-13,17.23-23.43-2.54-10.06-11.25-14.47-26.17-16.54-20.5-2.6-34.15-8.1-38.18-24.01-3.84-15.18,4.04-29.43,20.17-36.43l-4.67-18.47,11.34-2.87,4.49,17.74c11.07-2.41,19.3-1.38,25.39.39l-1.52,13.23c-4.4-1.22-12.91-3.35-24.62-.39-14.08,3.56-17.26,13.32-15.41,20.63,2.41,9.51,10.37,12.55,27.95,15.11,20.78,2.92,32.7,10.02,36.81,26.3,3.65,14.45-2.98,30.53-21.03,38.4l4.81,19.02-11.52,2.91Z"/>
      <path class="cls-1" d="M312.07,737.9l-4.7-18.59c-10.24,1.89-21.33,1.28-28.92-1.69l-2.08-.81,1.87-19.36,3.57,1.26c8.23,2.91,17.92,3.32,26.61,1.12,5.57-1.41,10.12-4.22,12.81-7.91,2.57-3.54,3.36-7.66,2.28-11.93-2.06-8.13-8.93-12.29-23.71-14.33-18.23-2.31-35.8-7.09-40.64-26.21-4.02-15.89,3.63-30.88,19.57-38.8l-4.8-18.97,17.08-4.32,4.53,17.89c8.63-1.52,16.52-1.19,24.04.99l2.4.7-2.2,19.15-3.34-.93c-3.5-.97-11.7-3.25-23.1-.37-12.19,3.08-14.76,11.1-13.27,17.04,1.87,7.41,7.6,10.3,25.51,12.91,23.29,3.27,35.03,11.79,39.26,28.5,4.16,16.45-4.01,32.55-20.44,40.77l4.94,19.52-17.26,4.37ZM311.7,712.29l4.66,18.42,5.78-1.46-4.7-18.59,2.3-1c15.42-6.73,23.02-20.45,19.35-34.96-3.59-14.19-13.54-21.17-34.36-24.09-17.93-2.61-27.55-6.01-30.41-17.32-2.34-9.26,2.18-20.34,17.55-24.23,9.51-2.4,17-1.72,22.79-.43l.84-7.31c-6.65-1.51-13.72-1.41-21.53.28l-2.8.61-4.46-17.65-5.6,1.42,4.56,18.04-2.31,1c-14.68,6.37-21.93,19.32-18.48,32.99,3.25,12.84,13.25,18.96,35.68,21.8,12.28,1.7,25.26,5.25,28.67,18.75,1.5,5.94.36,11.93-3.23,16.86-3.55,4.88-9.13,8.39-16.14,10.16-8.56,2.16-18,2.08-26.45-.17l-.72,7.42c7.15,2.12,17.32,2.21,26.17.13l2.83-.66Z"/>
    </g>
  </g>
  <g>
    <path class="cls-1" d="M272.51,397.97c-5.02,0-9.8-1.84-13.57-5.24-4.04-3.64-6.41-8.62-6.69-14.02l-9.84-190.43c-.58-11.18,8.05-20.74,19.23-21.32l431.17-22.27c11.22-.56,20.74,8.05,21.32,19.23l9.84,190.44c.58,11.18-8.05,20.74-19.23,21.32l-431.17,22.27c-.36.02-.71.03-1.07.03ZM693.86,162.42s-.08,0-.13,0l-431.17,22.27c-.9.05-1.48.55-1.75.84-.27.3-.71.93-.66,1.82l9.84,190.43c.05.9.55,1.48.84,1.75.3.27.95.7,1.82.66l431.17-22.27c1.38-.07,2.48-1.29,2.41-2.67l-9.84-190.43c-.07-1.33-1.22-2.41-2.54-2.41Z"/>
    <path class="cls-1" d="M285.24,362.51l-3.3-63.9c-1.35-26.07,7.54-51.11,25.03-70.5,17.48-19.39,41.47-30.81,67.55-32.16l304.81-15.74,3.3,63.9c2.78,53.82-38.75,99.87-92.57,102.66l-304.81,15.74ZM662.51,198.87l-287.07,14.83c-21.34,1.1-40.97,10.45-55.27,26.31-14.31,15.87-21.58,36.35-20.48,57.69l2.38,46.17,287.07-14.83c44.04-2.27,78.03-39.96,75.75-84l-2.38-46.17Z"/>
    <g>
      <path class="cls-1" d="M295.96,227.24l-.22-4.31c-2.48.09-5.07-.55-6.62-1.54l.88-2.91c1.59.94,3.85,1.64,6.23,1.52,3.03-.16,4.98-2.01,4.86-4.44s-1.86-3.71-5.08-4.82c-4.44-1.48-7.22-3.3-7.42-7.01s2.19-6.36,6.08-7.2l-.22-4.31,2.64-.14.21,4.14c2.56-.05,4.35.55,5.62,1.21l-.92,2.87c-.92-.47-2.72-1.31-5.45-1.17-3.28.17-4.42,2.2-4.33,3.9.11,2.22,1.75,3.24,5.54,4.59,4.48,1.56,6.82,3.67,7.01,7.46.17,3.37-2.01,6.64-6.36,7.6l.23,4.43-2.69.14Z"/>
      <path class="cls-1" d="M294.56,228.79l-.23-4.41c-2.26-.15-4.51-.79-6.01-1.75l-.94-.6,1.74-5.79,1.63.97c1.54.92,3.56,1.4,5.4,1.31,1.11-.06,2.06-.4,2.68-.98.54-.5.81-1.16.77-1.91-.07-1.28-.79-2.36-4.09-3.5-4.01-1.34-8.15-3.38-8.41-8.34-.2-3.9,2.13-7.08,6.02-8.38l-.24-4.6,5.6-.29.22,4.24c1.8.13,3.41.57,4.9,1.34l1.11.58-1.83,5.71-1.55-.78c-.68-.34-2.24-1.14-4.7-1.02-1.09.06-1.93.37-2.42.9-.48.52-.53,1.13-.51,1.45.06,1.16.73,1.91,4.55,3.27,3.57,1.25,7.72,3.37,8,8.78.21,4.03-2.28,7.43-6.3,8.78l.25,4.73-5.64.29ZM297.14,221.4v.03s.96-.21.96-.21c3.31-.72,5.35-3.11,5.2-6.07-.13-2.47-1.2-4.46-6.02-6.14-3.47-1.23-6.35-2.52-6.53-5.91-.07-1.35.39-2.63,1.29-3.61.26-.28.59-.58,1.03-.85-2,1.02-3.12,2.82-3,5.01.13,2.63,1.87,4.17,6.41,5.69,2.74.95,5.9,2.5,6.09,6.15.08,1.63-.53,3.13-1.72,4.24-.98.9-2.27,1.48-3.77,1.69h.06ZM290.89,220.64c.99.41,2.24.69,3.49.78-1.19-.12-2.37-.41-3.47-.85l-.02.07ZM299.21,197.8c.73.12,1.36.3,1.89.49v-.04c-.59-.21-1.22-.36-1.89-.45Z"/>
    </g>
    <g>
      <path class="cls-1" d="M674.48,351.97l-.22-4.31c-2.48.09-5.07-.55-6.62-1.54l.88-2.91c1.59.94,3.85,1.64,6.23,1.52,3.03-.16,4.98-2.01,4.86-4.44-.12-2.34-1.86-3.71-5.08-4.82-4.44-1.48-7.22-3.3-7.42-7.01s2.19-6.36,6.08-7.2l-.22-4.31,2.64-.14.21,4.14c2.56-.05,4.35.55,5.62,1.21l-.92,2.87c-.92-.47-2.72-1.31-5.45-1.17-3.28.17-4.42,2.2-4.33,3.9.11,2.22,1.75,3.24,5.54,4.59,4.48,1.56,6.82,3.67,7.01,7.46.17,3.37-2.01,6.64-6.36,7.6l.23,4.43-2.69.14Z"/>
      <path class="cls-1" d="M673.07,353.52l-.23-4.41c-2.26-.15-4.51-.79-6.01-1.75l-.94-.6,1.74-5.79,1.63.97c1.54.92,3.56,1.4,5.4,1.31,2.15-.11,3.54-1.27,3.46-2.89-.07-1.27-.79-2.36-4.09-3.5-4.01-1.34-8.15-3.38-8.41-8.33-.2-3.9,2.13-7.08,6.02-8.39l-.24-4.6,5.6-.29.22,4.25c1.8.13,3.41.57,4.89,1.34l1.11.58-1.83,5.71-1.55-.78c-.68-.34-2.23-1.13-4.7-1.02-1.09.06-1.93.37-2.42.9-.48.52-.53,1.13-.51,1.45.06,1.17.73,1.91,4.55,3.27,3.57,1.25,7.72,3.37,8,8.78.21,4.03-2.28,7.43-6.3,8.78l.25,4.73-5.64.29ZM675.66,346.13v.03s.96-.21.96-.21c3.31-.72,5.35-3.11,5.2-6.07-.13-2.47-1.2-4.46-6.02-6.14-3.47-1.23-6.36-2.52-6.53-5.91-.07-1.35.39-2.63,1.29-3.61.26-.28.59-.58,1.03-.85-2,1.02-3.11,2.82-3,5.01.14,2.63,1.87,4.17,6.41,5.68,2.74.95,5.9,2.51,6.09,6.15.16,3.05-2.12,5.45-5.5,5.92h.08ZM669.4,345.37c.99.41,2.24.69,3.5.78-1.19-.12-2.37-.41-3.48-.85l-.02.07ZM677.73,322.53c.73.12,1.35.3,1.88.49v-.04c-.58-.21-1.21-.36-1.88-.45Z"/>
    </g>
    <g>
      <path class="cls-1" d="M480.11,324l-.67-12.91c-7.42.25-15.2-1.65-19.84-4.61l2.62-8.72c4.76,2.83,11.53,4.91,18.68,4.54,9.07-.47,14.93-6.02,14.56-13.31-.36-7.03-5.57-11.11-15.22-14.46-13.3-4.44-21.65-9.9-22.22-21.02-.55-10.61,6.57-19.05,18.23-21.57l-.67-12.9,7.92-.41.64,12.39c7.68-.14,13.02,1.63,16.84,3.61l-2.76,8.6c-2.76-1.39-8.15-3.94-16.32-3.51-9.84.51-13.24,6.58-12.98,11.69.34,6.64,5.24,9.72,16.6,13.75,13.44,4.69,20.43,10.99,21.01,22.36.52,10.09-6.02,19.91-19.07,22.76l.69,13.29-8.05.42Z"/>
      <path class="cls-1" d="M478.01,326.33l-.67-13c-7.04-.13-14.28-2.01-18.93-4.98l-1.41-.9,3.93-13.05,2.44,1.45c5.05,3,11.39,4.55,17.43,4.23,7.77-.4,12.77-4.81,12.46-10.98-.29-5.58-4.27-9.19-13.73-12.47-11.89-3.97-23.02-9.51-23.71-23-.58-11.15,6.49-20.17,18.14-23.4l-.69-13.29,12.36-.64.65,12.51c5.9.16,11.07,1.42,15.75,3.85l1.66.86-4.12,12.86-2.32-1.17c-2.19-1.1-7.3-3.69-15.21-3.28-8.36.43-11.08,5.31-10.87,9.36.26,5.06,3.65,7.7,15.12,11.77,15.15,5.29,21.88,12.57,22.49,24.34.6,11.55-6.96,21.22-18.97,24.59l.71,13.68-12.48.64ZM481.55,308.8l.66,12.87,3.62-.19-.67-12.95,1.84-.4c11.04-2.41,17.84-10.45,17.32-20.48-.51-9.81-6.16-15.72-19.53-20.38-11.67-4.14-17.67-7.71-18.08-15.73-.34-6.57,4.19-13.46,15.08-14.02,6.56-.34,11.42,1.06,15.09,2.65l1.39-4.35c-4.15-1.82-8.81-2.65-14.09-2.56l-2.15.04-.64-12.32-3.49.18.65,12.57-1.84.4c-10.66,2.31-16.98,9.7-16.48,19.29.46,8.87,6.26,14.2,20.71,19.02,8.01,2.78,16.25,6.89,16.74,16.45.45,8.68-6.4,15.11-16.66,15.64-5.92.3-12.14-.97-17.45-3.52l-1.34,4.44c4.45,2.29,11.07,3.65,17.13,3.44l2.18-.08Z"/>
    </g>
    <g>
      <rect class="cls-1" x="541.26" y="244.75" width="88.02" height="16.97" rx="6.97" ry="6.97" transform="translate(-12.28 30.53) rotate(-2.96)"/>
      <rect class="cls-1" x="543.53" y="270.16" width="88.02" height="16.97" rx="6.97" ry="6.97" transform="translate(-13.59 30.68) rotate(-2.96)"/>
    </g>
    <g>
      <rect class="cls-1" x="333.02" y="255.51" width="88.02" height="16.97" rx="6.97" ry="6.97" transform="translate(-13.12 19.8) rotate(-2.96)"/>
      <rect class="cls-1" x="335.29" y="280.91" width="88.02" height="16.97" rx="6.97" ry="6.97" transform="translate(-14.42 19.95) rotate(-2.96)"/>
    </g>
  </g>
</svg>