<?xml version="1.0" encoding="UTF-8"?>
<svg id="Layer_1" data-name="Layer 1" xmlns="http://www.w3.org/2000/svg" viewBox="0 0 1024 1024">
  <defs>
    <style>
      .cls-1 {
        fill: currentColor;
        stroke-width: 0px;
      }
    </style>
  </defs>
  <path class="cls-1" d="M512,524.46c-6.1,0-12.2-1.33-17.89-4-20.57-9.64-63.37-29.7-101.48-63.91-47.24-42.41-71.57-92.41-72.31-148.61-.39-29.86,11.7-59.02,33.19-80,19.79-19.32,45.28-29.43,71.63-28.44,39.47,1.47,72.04,34.33,86.86,52.14,14.82-17.81,47.39-50.68,86.86-52.14h0c26.38-.98,51.84,9.12,71.63,28.44,21.48,20.98,33.58,50.13,33.18,80-.74,56.21-25.07,106.21-72.31,148.61-38.1,34.21-80.91,54.27-101.48,63.91-5.68,2.66-11.79,4-17.89,4ZM421.64,220.15c-19.7,0-38.66,7.97-53.67,22.61-17.44,17.03-27.26,40.68-26.94,64.9,1.57,118.91,122.22,175.45,161.87,194.04,5.78,2.71,12.41,2.71,18.19,0,39.65-18.59,160.29-75.14,161.87-194.04.32-24.21-9.5-47.87-26.94-64.9-15.69-15.32-35.74-23.34-56.39-22.56h0c-42.6,1.58-78.71,53.73-79.07,54.26-1.93,2.83-5.14,4.52-8.56,4.52h-.01c-3.43,0-6.63-1.7-8.56-4.53-.35-.52-36.47-52.67-79.07-54.25-.91-.03-1.82-.05-2.72-.05Z"/>
  <g>
    <path class="cls-1" d="M354.2,805.94c-.55,0-1.07,0-1.57-.03-32.67-1.18-60.79-21.87-83.99-41.96-2.27-1.97-3.58-4.83-3.58-7.83v-163.38c0-3.6,1.87-6.94,4.93-8.83,16.49-10.14,37.93-22.22,46.36-22.22h42.82c12.42,0,20.35,5.74,29.54,12.38,2.27,1.64,4.62,3.34,7.24,5.11,11.62,7.85,29.44,17.7,64.53,24.43h86.65c15.27,0,50.84,8.93,68.12,23.29l202.98-62.19c10.08-3.04,20.72-1.96,30,3.03,9.28,4.98,16.05,13.25,19.07,23.29l1.55,5.14c6.08,20.21-4.93,41.56-24.64,48.47l-138.26,96.76c-20.88,14.61-45.17,23.15-70.25,24.67-77.5,4.71-154.7,18.85-211.07,29.17-34.87,6.38-58.42,10.7-70.44,10.7ZM285.79,751.35c20.53,17.42,42.87,32.96,67.59,33.85,9.22.31,34.95-4.38,67.53-10.34,56.89-10.41,134.8-24.68,213.54-29.47,21.27-1.29,41.89-8.54,59.63-20.97l139.52-97.64c.9-.63,1.9-1.11,2.95-1.43,9.83-2.96,15.43-13.37,12.47-23.21l-1.55-5.14c-1.42-4.74-4.63-8.64-9.03-11.01-4.4-2.36-9.43-2.88-14.17-1.45l-205.6,62.99c-1.35.41-2.89.67-5.69.93-3.35.32-6.64-1.02-8.82-3.57-8.73-10.19-42.89-20.55-57.02-20.55h-87.63c-.64,0-1.29-.06-1.92-.18-39.45-7.44-59.86-18.77-73.23-27.81-2.89-1.96-5.49-3.83-7.78-5.49-8.1-5.86-11.91-8.45-17.39-8.45h-42.2c-3.28.86-14.78,6.35-31.19,16.16v152.78ZM317.27,582.34s0,0,0,0c0,0,0,0,0,0Z"/>
    <path class="cls-1" d="M409.86,725.53c-3.93,0-7.7-2.25-9.43-6.07-2.37-5.21-.07-11.35,5.13-13.72l22.77-10.37c25.2-11.48,53.13-16.95,80.72-15.81,14.46.59,35.71,1.16,53.13-.77,23.08-2.56,25.86-8.05,25.88-8.11,6.87-17.44,9.17-27.5,10.41-32.9,1-4.37,2.51-10.97,9.78-12.23,7.19-1.26,10.91,4.54,12.49,7.02,3.08,4.81,1.68,11.21-3.13,14.3-1.58,6.4-4.45,16.63-10.27,31.42-7.18,18.22-35.91,24.59-99.14,21.99-24.39-1.01-49.03,3.83-71.29,13.97l-22.77,10.37c-1.39.63-2.85.94-4.29.94Z"/>
    <path class="cls-1" d="M253.31,824.57h-67.36c-17.91,0-32.48-14.57-32.48-32.48v-203.22c0-17.91,14.57-32.48,32.48-32.48h67.36c17.91,0,32.48,14.57,32.48,32.48v203.22c0,17.91-14.57,32.48-32.48,32.48ZM185.95,577.1c-6.49,0-11.76,5.28-11.76,11.76v203.22c0,6.49,5.28,11.76,11.76,11.76h67.36c6.49,0,11.76-5.28,11.76-11.76v-203.22c0-6.49-5.28-11.76-11.76-11.76h-67.36Z"/>
  </g>
</svg>