<?xml version="1.0" encoding="UTF-8"?>
<svg id="Layer_1" data-name="Layer 1" xmlns="http://www.w3.org/2000/svg" viewBox="0 0 1024 1024">
  <defs>
    <style>
      .cls-1 {
        fill: currentColor;
        stroke-width: 0px;
      }
    </style>
  </defs>
  <g>
    <path class="cls-1" d="M749.18,274.29H226.58c-13.79,0-24.97,11.18-24.97,24.97v351.57c0,13.73,11.24,24.97,24.97,24.97h316.21c5.08,0,9.2-4.12,9.2-9.2h0c0-5.08-4.12-9.2-9.2-9.2H226.58c-3.61,0-6.57-2.96-6.57-6.57v-351.57c0-3.61,2.96-6.57,6.57-6.57h522.6c3.63,0,6.57,2.94,6.57,6.57v185.09c0,5.08,4.12,9.2,9.2,9.2h0c5.08,0,9.2-4.12,9.2-9.2v-185.09c0-13.79-11.18-24.97-24.97-24.97Z"/>
    <path class="cls-1" d="M702.11,749.57c-74.25,3.41-135.4-57.73-131.99-131.99,2.98-64.74,55.4-117.16,120.14-120.14,74.25-3.41,135.4,57.73,131.99,131.99-2.98,64.74-55.4,117.17-120.14,120.14ZM703.24,515.93c-64.98-4.16-118.78,49.64-114.62,114.62,3.43,53.71,46.82,97.1,100.53,100.53,64.98,4.16,118.78-49.64,114.62-114.62-3.43-53.71-46.82-97.1-100.53-100.53Z"/>
    <path class="cls-1" d="M679.86,676.6l-54.01-54.01c-3.59-3.59-3.59-9.42,0-13.01,3.59-3.59,9.42-3.59,13.01,0l41,41,73.66-73.66c3.59-3.59,9.42-3.59,13.01,0,3.59,3.59,3.59,9.42,0,13.01l-86.67,86.67Z"/>
    <rect class="cls-1" x="251.14" y="438.51" width="301.23" height="17.64" rx="8.82" ry="8.82"/>
    <rect class="cls-1" x="251.14" y="493.95" width="301.23" height="17.64" rx="8.82" ry="8.82"/>
    <path class="cls-1" d="M220.01,375.25c-4.89,0-8.74-4.45-7.72-9.51.74-3.72,4.23-6.26,8.02-6.26l539.72-.16h0c3.35,0,6.43,2.08,7.46,5.26,1.77,5.47-2.26,10.51-7.46,10.51l-540.01.16Z"/>
  </g>
  <path class="cls-1" d="M329.19,628.89h-51.41c-14.69,0-26.64-11.95-26.64-26.64v-24.64c0-14.69,11.95-26.64,26.64-26.64h51.41c14.69,0,26.64,11.95,26.64,26.64v24.64c0,14.69-11.95,26.64-26.64,26.64ZM277.78,568.72c-4.9,0-8.88,3.98-8.88,8.88v24.64c0,4.9,3.98,8.88,8.88,8.88h51.41c4.9,0,8.88-3.98,8.88-8.88v-24.64c0-4.9-3.98-8.88-8.88-8.88h-51.41Z"/>
</svg>