<?xml version="1.0" encoding="UTF-8"?>
<svg id="Layer_1" data-name="Layer 1" xmlns="http://www.w3.org/2000/svg" viewBox="0 0 1024 1024">
  <defs>
    <style>
      .cls-1 {
        fill: currentColor;
        stroke-width: 0px;
      }
    </style>
  </defs>
  <path class="cls-1" d="M719.72,194.8c-144.95-144.95-379.97-144.95-524.92,0-144.95,144.95-144.95,379.97,0,524.92,131.15,131.15,336.01,143.63,481.2,37.47l163.98,163.98c22.33,22.33,58.86,22.33,81.19,0h0c22.33-22.33,22.33-58.86,0-81.19l-163.98-163.98c106.16-145.19,93.68-350.05-37.47-481.2ZM730.79,457.26c0,35.57-6.74,70.22-20.02,102.98-13.73,33.87-33.95,64.29-60.09,90.43s-56.57,46.36-90.43,60.09c-32.76,13.29-67.41,20.02-102.98,20.02-35.57,0-70.22-6.74-102.98-20.02-33.87-13.73-64.29-33.95-90.43-60.09s-46.36-56.57-60.09-90.43c-13.29-32.76-20.02-67.41-20.02-102.98,0-35.57,6.74-70.22,20.02-102.98,13.73-33.87,33.95-64.29,60.09-90.43s56.57-46.36,90.43-60.09c32.76-13.29,67.41-20.02,102.98-20.02,35.57,0,70.22,6.74,102.98,20.02,33.87,13.73,64.29,33.95,90.43,60.09s46.36,56.57,60.09,90.43c13.29,32.76,20.02,67.41,20.02,102.98Z"/>
</svg>