<?xml version="1.0" encoding="UTF-8"?>
<svg id="Layer_1" xmlns="http://www.w3.org/2000/svg" viewBox="0 0 1024 1024">
  <path d="M723.03,454.99c-19.34-9.33-28.58-31.64-21.49-51.92l11.23-32.14-59.7-59.7-32.16,11.23c-20.27,7.08-42.59-2.16-51.91-21.51l-14.79-30.67h-84.43l-14.79,30.67c-9.32,19.34-31.64,28.58-51.92,21.51l-32.16-11.23-59.69,59.7,11.23,32.14c7.08,20.27-2.17,42.59-21.51,51.92l-30.68,14.8v84.42l30.69,14.8c19.34,9.32,28.58,31.63,21.5,51.9l-11.23,32.16,59.68,59.7,32.16-11.23c20.27-7.09,42.59,2.15,51.91,21.49l14.79,30.69h84.44l14.78-30.68c9.33-19.35,31.65-28.59,51.92-21.5l32.16,11.23,59.7-59.7-11.23-32.16c-7.09-20.27,2.15-42.58,21.5-51.9l30.68-14.8v-84.42l-30.68-14.8ZM630.14,675.15c-33.69-11.79-70.8,3.58-86.32,35.74l-7.17,14.87h-49.32l-7.17-14.87c-15.5-32.16-52.61-47.52-86.31-35.74l-15.58,5.44-34.87-34.88,5.44-15.59c11.77-33.71-3.6-70.81-35.75-86.3l-14.87-7.17v-49.32l14.87-7.17c32.15-15.5,47.52-52.61,35.75-86.31l-5.44-15.57,34.86-34.87,15.59,5.44c33.7,11.77,70.81-3.6,86.31-35.75l7.16-14.86h49.32l7.16,14.86c11.63,24.12,36.42,39.7,63.16,39.7,7.87,0,15.66-1.33,23.15-3.94l15.58-5.44,34.88,34.88-5.44,15.57c-11.78,33.7,3.58,70.81,35.74,86.32l14.87,7.17v49.32l-14.87,7.17c-32.17,15.5-47.53,52.6-35.75,86.3l5.44,15.59-34.88,34.88-15.58-5.44Z"/>
  <path d="M512,393.94c-65.1,0-118.06,52.96-118.06,118.06s52.96,118.06,118.06,118.06,118.06-52.96,118.06-118.06-52.96-118.06-118.06-118.06ZM512,602.11c-49.69,0-90.11-40.42-90.11-90.11s40.42-90.11,90.11-90.11,90.11,40.42,90.11,90.11-40.42,90.11-90.11,90.11Z"/>
</svg>