<?xml version="1.0" encoding="UTF-8"?>
<svg id="Layer_1" data-name="Layer 1" xmlns="http://www.w3.org/2000/svg" viewBox="0 0 1024 1024">
  <defs>
    <style>
      .cls-1 {
        fill: #000;
        stroke-width: 0px;
      }
    </style>
  </defs>
  <path class="cls-1" d="M858.3,687.37c-55.25-30.61-121.79-22.04-167.43,16.46l-306.77-169.97c1.01-7.04,1.48-14.11,1.46-21.15,0-.25,0-.49,0-.74,0-.21,0-.42,0-.63.02-7.06-.46-14.14-1.46-21.21l306.77-169.97c45.64,38.5,112.18,47.07,167.43,16.46,71.45-39.59,97.37-129.92,57.79-201.37s-129.92-97.37-201.37-57.79c-55.25,30.61-83.27,91.57-74.83,150.68l-306.77,169.97c-45.64-38.5-112.18-47.07-167.43-16.46-48.61,26.93-76.14,77.36-76.31,129.34,0,.33,0,.66,0,1,0,.33,0,.66,0,1,.17,51.98,27.7,102.41,76.31,129.34,55.25,30.61,121.79,22.04,167.43-16.46l306.77,169.97c-8.44,59.11,19.58,120.07,74.83,150.68,71.45,39.59,161.78,13.66,201.37-57.79,39.59-71.45,13.66-161.78-57.79-201.37ZM753.24,147.01c33.11-18.34,74.97-6.33,93.32,26.78,18.34,33.11,6.33,74.97-26.78,93.32-33.11,18.34-74.97,6.33-93.32-26.78-18.34-33.11-6.33-74.97,26.78-93.32ZM270.75,571.29c-33.11,18.34-74.97,6.33-93.32-26.78-5.71-10.31-8.48-21.47-8.58-32.51.1-11.04,2.87-22.2,8.58-32.51,18.34-33.11,60.21-45.12,93.32-26.78,22.33,12.37,35.04,35.44,35.34,59.3-.31,23.86-13.02,46.91-35.34,59.28ZM846.56,850.21c-18.34,33.11-60.21,45.12-93.32,26.78-33.11-18.34-45.12-60.21-26.78-93.32,18.34-33.11,60.21-45.12,93.32-26.78,33.11,18.34,45.12,60.21,26.78,93.32Z"/>
</svg>