<?xml version="1.0" encoding="UTF-8"?>
<svg id="Layer_1" xmlns="http://www.w3.org/2000/svg" viewBox="0 0 1024 1024">
  <path d="M778.09,289.2l-12.85-.12c-.38,0-.75,0-1.12,0-37.36,0-59.42,18.02-71.34,33.14-6.8,8.61-11.11,17.27-13.7,23.65H245.64l67.19,204.7c5.8,17.67,24.63,30.01,45.79,30.01h242.99c1.01,0,10.12.24,17.8,7.64,5.87,5.65,9.63,14.22,11.2,25.5h-250.33v26.11h277.28v-13.06c0-25.27-6.74-44.57-20.04-57.37-.58-.56-1.18-1.11-1.79-1.64,5.68-5.17,9.69-11.51,11.71-18.55l54.44-189.81c2.95-9.08,15.05-37.92,50.26-43.32l.1,17.44,26.11-.16-.26-44.15ZM671.1,371.97l-48.76,170.03c-2.04,7.1-11.11,12.45-21.1,12.45h-242.61c-9.71,0-18.72-5.18-20.98-12.04l-55.94-170.44h389.4Z"/>
  <path d="M383.88,644.47c-25.04,0-45.4,20.29-45.4,45.23s20.37,45.23,45.4,45.23,45.4-20.29,45.4-45.23-20.37-45.23-45.4-45.23ZM383.88,708.81c-10.64,0-19.29-8.57-19.29-19.11s8.65-19.12,19.29-19.12,19.29,8.57,19.29,19.12-8.65,19.11-19.29,19.11Z"/>
  <path d="M572.24,644.47c-25.04,0-45.4,20.29-45.4,45.23s20.37,45.23,45.4,45.23,45.4-20.29,45.4-45.23-20.37-45.23-45.4-45.23ZM591.52,689.7c0,10.54-8.65,19.11-19.29,19.11s-19.29-8.57-19.29-19.11,8.65-19.12,19.29-19.12,19.29,8.57,19.29,19.12Z"/>
</svg>