<?xml version="1.0" encoding="UTF-8"?>
<svg id="Layer_1" data-name="Layer 1" xmlns="http://www.w3.org/2000/svg" viewBox="0 0 1024 1024">
  <defs>
    <style>
      .cls-1 {
        fill: currentColor;
        stroke-width: 0px;
      }
    </style>
  </defs>
  <path class="cls-1" d="M512,15.65C237.87,15.65,15.65,237.87,15.65,512s222.22,496.35,496.35,496.35,496.35-222.22,496.35-496.35S786.13,15.65,512,15.65ZM804.86,390.88l-370.77,370.77-64.97-64.98-149.98-149.97c-8.82-8.82-13.22-20.38-13.22-31.94s4.4-23.11,13.22-31.93c17.64-17.64,46.24-17.64,63.87,0l149.98,149.97,306.89-306.89c17.64-17.64,46.23-17.64,63.87,0l1.11,1.1c17.63,17.64,17.63,46.24,0,63.87Z"/>
</svg>